<svg width="26" height="23" viewBox="0 0 26 23" fill="none" xmlns="http://www.w3.org/2000/svg">
<path d="M15.8424 13.6066V9.09545C15.8424 8.55727 16.0542 8.04112 16.4313 7.66057C16.8083 7.28002 17.3197 7.06622 17.853 7.06622C18.3862 7.06622 18.8976 7.28002 19.2747 7.66057C19.6517 8.04112 19.8636 8.55727 19.8636 9.09545V14.0927C19.8636 18.238 17.4283 21.5824 12.7265 21.5824C8.05273 21.5824 5.61743 18.2369 5.61743 14.0927V9.09545C5.61743 8.55727 5.82926 8.04112 6.20632 7.66057C6.58338 7.28002 7.09479 7.06622 7.62803 7.06622C7.89206 7.06622 8.15351 7.11871 8.39745 7.22069C8.64139 7.32267 8.86304 7.47214 9.04974 7.66057C9.23644 7.849 9.38454 8.0727 9.48558 8.3189C9.58662 8.5651 9.63863 8.82897 9.63863 9.09545V13.6411C9.63863 15.8135 10.6589 17.6713 12.7265 17.6713C14.7941 17.6713 15.8424 15.8083 15.8424 13.6066Z" fill="#8200FF"/>
<path d="M9.36305 3.96538C9.36048 4.22422 9.3005 4.4792 9.18751 4.71159C9.07452 4.94398 8.9114 5.14788 8.71011 5.30831C8.50883 5.46874 8.2745 5.58164 8.02432 5.63871C7.77415 5.69578 7.51449 5.69557 7.26441 5.6381C6.95373 5.56294 6.6703 5.40104 6.44651 5.17093C6.22273 4.94081 6.06765 4.65177 5.99899 4.33687C5.93034 4.02197 5.95089 3.69392 6.0583 3.39026C6.1657 3.08659 6.35563 2.81957 6.60635 2.61974C6.85706 2.4199 7.15845 2.29532 7.47603 2.26025C7.79361 2.22518 8.11455 2.28104 8.40216 2.42142C8.68976 2.56181 8.9324 2.78107 9.10233 3.05411C9.27226 3.32714 9.36261 3.64294 9.36305 3.96538Z" fill="#8200FF"/>
<path d="M19.4793 3.96537C19.4765 4.22426 19.4164 4.47925 19.3033 4.71164C19.1902 4.94402 19.027 5.1479 18.8256 5.30831C18.6243 5.46873 18.3899 5.58161 18.1396 5.63867C17.8894 5.69574 17.6297 5.69554 17.3796 5.6381C17.069 5.56275 16.7857 5.40072 16.5621 5.17052C16.3385 4.94033 16.1836 4.65126 16.115 4.33639C16.0465 4.02151 16.0672 3.69353 16.1747 3.38996C16.2822 3.08638 16.4722 2.81946 16.7229 2.61972C16.9736 2.41999 17.275 2.29549 17.5925 2.26047C17.91 2.22545 18.2309 2.28133 18.5184 2.4217C18.806 2.56208 19.0486 2.78129 19.2185 3.05428C19.3884 3.32726 19.4788 3.64299 19.4793 3.96537Z" fill="#8200FF"/>
<path d="M15.1141 7.63178C15.1104 7.98181 15.0291 8.32657 14.8761 8.64074C14.7232 8.95491 14.5024 9.2305 14.2301 9.44729C13.9578 9.66408 13.6408 9.81655 13.3024 9.89352C12.9641 9.97048 12.6129 9.96998 12.2748 9.89205C11.8547 9.79019 11.4714 9.57103 11.1689 9.25965C10.8664 8.94827 10.6569 8.55724 10.5643 8.13129C10.4716 7.70535 10.4997 7.26169 10.6452 6.85107C10.7907 6.44045 11.0477 6.07946 11.387 5.80939C11.7262 5.53932 12.134 5.37109 12.5635 5.32393C12.9931 5.27677 13.4271 5.35259 13.8159 5.54272C14.2048 5.73285 14.5328 6.02961 14.7623 6.39905C14.9919 6.76849 15.1138 7.19569 15.1141 7.63178Z" fill="#8200FF"/>
<path d="M12.7214 18.3352C14.5372 18.3352 16.0092 16.8495 16.0092 15.0169C16.0092 13.1843 14.5372 11.6986 12.7214 11.6986C10.9056 11.6986 9.43359 13.1843 9.43359 15.0169C9.43359 16.8495 10.9056 18.3352 12.7214 18.3352Z" fill="#8200FF"/>
</svg>
