<svg width="97" height="24" viewBox="0 0 97 24" fill="none" xmlns="http://www.w3.org/2000/svg">
<path d="M59.088 7.87V16.8456C58.1948 16.4381 57.4285 15.8013 56.8689 15.0016C56.3092 14.2018 55.9767 13.2684 55.906 12.2985V7.87C55.906 7.45053 56.0746 7.04824 56.3746 6.75163C56.6747 6.45502 57.0817 6.28839 57.506 6.28839C57.9272 6.29308 58.3296 6.46177 58.6258 6.75788C58.9219 7.05398 59.088 7.4536 59.088 7.87Z" fill="#8200FF"/>
<path d="M7.21998 19.4296L9.86199 18.0121C10.356 18.965 11.274 19.7182 12.774 19.7182C14.656 19.7182 15.932 18.4114 15.932 16.2624V16.0647C15.332 16.816 14.252 17.3933 12.684 17.3933C9.57198 17.3933 7.08398 15.0011 7.08398 11.7469C7.08398 8.58371 9.68398 5.98987 13.084 5.98987C16.56 5.98987 19.114 8.44136 19.114 11.7469V16.1754C19.114 20.0721 16.426 22.5968 12.82 22.5968C10.22 22.5968 8.22798 21.4659 7.21998 19.4296ZM15.888 11.6797C15.888 10.108 14.634 8.95539 13.044 8.95539C11.454 8.95539 10.22 10.108 10.22 11.6797C10.2178 12.0448 10.2896 12.4066 10.4313 12.7438C10.573 13.0809 10.7817 13.3865 11.045 13.6426C11.3083 13.8986 11.6209 14.0998 11.9642 14.2344C12.3076 14.3689 12.6747 14.434 13.044 14.4258C14.634 14.4258 15.888 13.2514 15.888 11.6797Z" fill="#8200FF"/>
<path d="M77.22 19.4296L79.862 18.0121C80.356 18.965 81.274 19.7182 82.774 19.7182C84.656 19.7182 85.932 18.4114 85.932 16.2624V16.0647C85.332 16.816 84.252 17.3933 82.684 17.3933C79.572 17.3933 77.084 15.0011 77.084 11.7469C77.084 8.58371 79.684 5.98987 83.084 5.98987C86.556 5.98987 89.11 8.44729 89.11 11.7469V16.1754C89.11 20.0721 86.422 22.5968 82.816 22.5968C80.22 22.5968 78.228 21.4659 77.22 19.4296ZM85.888 11.6797C85.888 10.108 84.634 8.95539 83.044 8.95539C81.454 8.95539 80.22 10.108 80.22 11.6797C80.2178 12.0448 80.2896 12.4066 80.4313 12.7438C80.573 13.0809 80.7817 13.3865 81.045 13.6426C81.3083 13.8986 81.6209 14.0998 81.9642 14.2344C82.3076 14.3689 82.6747 14.434 83.044 14.4258C84.634 14.4258 85.888 13.2514 85.888 11.6797Z" fill="#8200FF"/>
<path d="M21.1741 17.2589V10.972C21.1741 8.15869 22.7881 6.01166 26.0801 6.01166C26.5874 6.0116 27.0927 6.0747 27.5841 6.19947C27.7453 6.24387 27.8872 6.33964 27.9877 6.4719C28.0883 6.60417 28.1418 6.76554 28.1401 6.93097V8.33465C28.139 8.45062 28.1114 8.56486 28.0593 8.66876C28.0071 8.77266 27.9318 8.86352 27.839 8.9345C27.7462 9.00548 27.6384 9.05474 27.5235 9.07857C27.4087 9.1024 27.2899 9.10018 27.1761 9.07207C26.9139 9.01085 26.6455 8.97968 26.3761 8.97915C25.1201 8.97915 24.3601 9.76996 24.3601 11.0827V17.2589H21.1741Z" fill="#8200FF"/>
<path d="M37.2801 11.3693V7.87202C37.2801 7.45425 37.4473 7.05346 37.7452 6.75713C38.0431 6.4608 38.4475 6.29302 38.8701 6.29041C39.2944 6.29041 39.7014 6.45704 40.0014 6.75365C40.3015 7.05026 40.4701 7.45255 40.4701 7.87202V11.747C40.4701 14.9576 38.5441 17.5475 34.8261 17.5475C33.4581 17.5475 32.0821 17.1659 31.0421 16.2585C30.1062 15.4013 29.4944 14.254 29.3081 13.0063C29.1681 12.1918 29.0321 11.227 29.6981 10.5924C29.7854 10.5067 29.886 10.4353 29.9961 10.3808C30.1326 10.3198 30.2775 10.2792 30.4261 10.2602C30.8228 10.1722 31.238 10.2196 31.6041 10.3947C31.8901 10.5742 32.1075 10.8427 32.2221 11.1578C32.3941 11.5868 32.4021 12.0435 32.5101 12.4883C32.6088 12.9184 32.799 13.3228 33.0681 13.6745C33.2769 13.9371 33.5441 14.1486 33.849 14.2926C34.1539 14.4366 34.4882 14.5092 34.8261 14.5049C36.4501 14.5148 37.2801 13.0755 37.2801 11.3693Z" fill="#8200FF"/>
<path d="M42.4441 22.3081V11.7469C42.4441 8.44729 44.9981 5.98987 48.4441 5.98987C51.8901 5.98987 54.4441 8.6015 54.4441 11.7469C54.4441 15.179 52.0681 17.5692 48.6201 17.5692C47.5348 17.5607 46.4818 17.2033 45.6201 16.5511V22.3081H42.4441ZM51.2701 11.7687C51.2614 11.2189 51.0886 10.6839 50.7733 10.2309C50.4579 9.77792 50.0142 9.42715 49.4979 9.22267C48.9815 9.01819 48.4156 8.96912 47.8711 9.08161C47.3266 9.19411 46.8279 9.46316 46.4376 9.85497C46.0473 10.2468 45.7829 10.7438 45.6775 11.2838C45.5722 11.8237 45.6306 12.3823 45.8454 12.8895C46.0602 13.3967 46.4219 13.8298 46.8849 14.1345C47.348 14.4391 47.8918 14.6017 48.4481 14.6017C48.8237 14.6064 49.1964 14.536 49.5439 14.3947C49.8913 14.2534 50.2062 14.0442 50.4698 13.7796C50.7334 13.515 50.9401 13.2005 51.0776 12.8549C51.2152 12.5093 51.2806 12.1399 51.2701 11.7687Z" fill="#8200FF"/>
<path d="M69.5019 5.98987C67.4879 5.98987 66.0059 6.69566 65.0499 7.82256C64.1619 8.86247 63.7239 10.2602 63.7239 11.7904V16.8397C64.6502 16.4147 65.4385 15.7431 66.0005 14.9002C66.5625 14.0572 66.876 13.0763 66.9059 12.0672C66.9079 12.0349 66.9079 12.0026 66.9059 11.9703C66.9659 10.3729 67.7779 9.04435 69.5059 9.04435C71.3219 9.04435 72.1499 10.4836 72.1499 12.1661V17.2588H75.3299V11.7904C75.3259 8.57975 73.3779 5.98987 69.5019 5.98987Z" fill="#8200FF"/>
<path d="M30.6 9.15308C31.4947 9.15308 32.22 8.43611 32.22 7.5517C32.22 6.66728 31.4947 5.95032 30.6 5.95032C29.7053 5.95032 28.98 6.66728 28.98 7.5517C28.98 8.43611 29.7053 9.15308 30.6 9.15308Z" fill="#8200FF"/>
<path d="M57.6 4.4577C58.4947 4.4577 59.22 3.74074 59.22 2.85632C59.22 1.97191 58.4947 1.25494 57.6 1.25494C56.7053 1.25494 55.98 1.97191 55.98 2.85632C55.98 3.74074 56.7053 4.4577 57.6 4.4577Z" fill="#8200FF"/>
<path d="M63.8259 11.8912C63.8259 12.5257 63.5709 13.1341 63.1171 13.5828C62.6632 14.0314 62.0477 14.2834 61.4059 14.2834C60.764 14.2834 60.1485 14.0314 59.6947 13.5828C59.2408 13.1341 58.9859 12.5257 58.9859 11.8912H56.0059C56.0059 13.3083 56.5753 14.6672 57.5889 15.6692C58.6026 16.6712 59.9774 17.2341 61.4109 17.2341C62.8444 17.2341 64.2191 16.6712 65.2328 15.6692C66.2464 14.6672 66.8159 13.3083 66.8159 11.8912H63.8259Z" fill="#8200FF" stroke="#8200FF" stroke-width="0.2" stroke-miterlimit="10"/>
</svg>
