<svg width="148" height="148" viewBox="0 0 148 148" fill="none" xmlns="http://www.w3.org/2000/svg">
<path d="M74.1116 141.437C111.36 141.437 141.556 111.187 141.556 73.8703C141.556 36.554 111.36 6.3031 74.1116 6.3031C36.8631 6.3031 6.66711 36.554 6.66711 73.8703C6.66711 111.187 36.8631 141.437 74.1116 141.437Z" fill="#6AFFAF" stroke="#6AFFAF" stroke-width="7" stroke-miterlimit="10"/>
<path d="M89.2264 84.9716V62.5875C89.2264 59.917 90.2853 57.356 92.1702 55.4677C94.0551 53.5794 96.6115 52.5186 99.2771 52.5186C101.943 52.5186 104.499 53.5794 106.384 55.4677C108.269 57.356 109.328 59.917 109.328 62.5875V87.3837C109.328 107.952 97.1541 124.547 73.6508 124.547C50.2873 124.547 38.1136 107.947 38.1136 87.3837V62.5875C38.1136 59.917 39.1725 57.356 41.0574 55.4677C42.9422 53.5794 45.4986 52.5186 48.1642 52.5186C49.4841 52.5186 50.7911 52.779 52.0105 53.285C53.2299 53.791 54.3378 54.5327 55.2711 55.4677C56.2044 56.4027 56.9447 57.5127 57.4498 58.7343C57.9549 59.9559 58.2149 61.2652 58.2149 62.5875V85.1427C58.2149 95.9224 63.3153 105.141 73.6508 105.141C83.9862 105.141 89.2264 95.8964 89.2264 84.9716Z" fill="#A5A6F6"/>
<path d="M56.8376 37.1324C56.8247 38.4168 56.5249 39.682 55.9601 40.8351C55.3952 41.9882 54.5798 42.9999 53.5736 43.796C52.5674 44.5921 51.396 45.1522 50.1455 45.4354C48.8949 45.7186 47.5969 45.7176 46.3468 45.4324C44.7938 45.0595 43.3769 44.2561 42.2583 43.1143C41.1396 41.9725 40.3643 40.5383 40.0212 38.9757C39.678 37.4132 39.7807 35.7855 40.3176 34.2787C40.8545 32.7719 41.8039 31.447 43.0572 30.4554C44.3105 29.4638 45.8171 28.8457 47.4046 28.6717C48.9922 28.4976 50.5965 28.7748 52.0342 29.4714C53.4719 30.168 54.6848 31.2559 55.5343 32.6107C56.3837 33.9655 56.8354 35.5325 56.8376 37.1324Z" fill="#A5A6F6"/>
<path d="M107.407 37.1324C107.393 38.417 107.093 39.6823 106.527 40.8353C105.962 41.9884 105.146 43 104.139 43.796C103.133 44.592 101.961 45.1521 100.71 45.4353C99.4594 45.7184 98.1611 45.7174 96.9107 45.4324C95.3582 45.0585 93.9421 44.2545 92.8242 43.1123C91.7064 41.9701 90.932 40.5358 90.5895 38.9734C90.2471 37.411 90.3504 35.7835 90.8877 34.2772C91.4251 32.7709 92.3747 31.4465 93.628 30.4554C94.8813 29.4643 96.3877 28.8465 97.975 28.6728C99.5623 28.499 101.166 28.7762 102.604 29.4728C104.041 30.1693 105.254 31.2571 106.103 32.6116C106.953 33.9661 107.404 35.5328 107.407 37.1324Z" fill="#A5A6F6"/>
<path d="M85.5863 55.325C85.5679 57.0618 85.1615 58.7725 84.3968 60.3314C83.6321 61.8903 82.5286 63.2578 81.1673 64.3335C79.806 65.4092 78.2215 66.1657 76.5301 66.5476C74.8387 66.9295 73.0835 66.927 71.3932 66.5403C69.293 66.0349 67.3773 64.9475 65.8651 63.4024C64.3529 61.8573 63.3054 59.9171 62.8424 57.8035C62.3794 55.69 62.5195 53.4886 63.2468 51.4511C63.9742 49.4137 65.2592 47.6224 66.9551 46.2824C68.651 44.9423 70.6891 44.1075 72.8363 43.8735C74.9836 43.6395 77.1532 44.0157 79.097 44.9592C81.0408 45.9026 82.6803 47.3751 83.8279 49.2082C84.9755 51.0414 85.5849 53.1611 85.5863 55.325Z" fill="#A5A6F6"/>
<path d="M73.6249 108.435C82.7019 108.435 90.0602 101.063 90.0602 91.9695C90.0602 82.876 82.7019 75.5043 73.6249 75.5043C64.548 75.5043 57.1897 82.876 57.1897 91.9695C57.1897 101.063 64.548 108.435 73.6249 108.435Z" fill="#A5A6F6"/>
</svg>
