<svg width="182" height="68" viewBox="0 0 182 68" fill="none" xmlns="http://www.w3.org/2000/svg">
<g filter="url(#filter0_d_355_360)">
<path d="M110.866 26.1082V43.2593C109.19 42.4806 107.752 41.2638 106.702 39.7356C105.652 38.2075 105.029 36.4238 104.896 34.5704V26.1082C104.896 25.3067 105.212 24.538 105.775 23.9712C106.338 23.4044 107.102 23.086 107.898 23.086C108.688 23.095 109.443 23.4173 109.999 23.9831C110.555 24.5489 110.866 25.3125 110.866 26.1082Z" fill="#A5A6F6"/>
<path d="M13.5468 48.1969L18.504 45.4882C19.4308 47.3091 21.1533 48.7484 23.9677 48.7484C27.4989 48.7484 29.893 46.2513 29.893 42.1449V41.7671C28.7673 43.2027 26.7409 44.3058 23.7988 44.3058C17.9598 44.3058 13.2916 39.7347 13.2916 33.5165C13.2916 27.472 18.17 22.5156 24.5494 22.5156C31.0713 22.5156 35.8634 27.2 35.8634 33.5165V41.9787C35.8634 49.4247 30.8199 54.2489 24.054 54.2489C19.1757 54.2489 15.4381 52.088 13.5468 48.1969ZM29.8105 33.388C29.8105 30.3847 27.4576 28.1822 24.4743 28.1822C21.491 28.1822 19.1757 30.3847 19.1757 33.388C19.1715 34.0856 19.3063 34.777 19.5722 35.4213C19.8381 36.0655 20.2296 36.6495 20.7236 37.1388C21.2177 37.628 21.8041 38.0125 22.4484 38.2696C23.0926 38.5266 23.7815 38.651 24.4743 38.6353C27.4576 38.6353 29.8105 36.3913 29.8105 33.388Z" fill="#A5A6F6"/>
<path d="M144.887 48.1969L149.844 45.4882C150.771 47.3091 152.493 48.7484 155.308 48.7484C158.839 48.7484 161.233 46.2513 161.233 42.1449V41.7671C160.107 43.2027 158.081 44.3058 155.139 44.3058C149.3 44.3058 144.632 39.7347 144.632 33.5165C144.632 27.472 149.51 22.5156 155.89 22.5156C162.404 22.5156 167.196 27.2113 167.196 33.5165V41.9787C167.196 49.4247 162.153 54.2489 155.387 54.2489C150.516 54.2489 146.778 52.088 144.887 48.1969ZM161.151 33.388C161.151 30.3847 158.798 28.1822 155.815 28.1822C152.831 28.1822 150.516 30.3847 150.516 33.388C150.512 34.0856 150.647 34.777 150.912 35.4213C151.178 36.0655 151.57 36.6495 152.064 37.1388C152.558 37.628 153.144 38.0125 153.789 38.2696C154.433 38.5266 155.122 38.651 155.815 38.6353C158.798 38.6353 161.151 36.3913 161.151 33.388Z" fill="#A5A6F6"/>
<path d="M39.7285 44.0489V32.0356C39.7285 26.6598 42.7568 22.5571 48.9336 22.5571C49.8855 22.557 50.8336 22.6776 51.7555 22.916C52.058 23.0009 52.3243 23.1838 52.5129 23.4366C52.7015 23.6893 52.802 23.9977 52.7987 24.3138V26.996C52.7968 27.2176 52.7449 27.4359 52.6471 27.6345C52.5493 27.833 52.408 28.0066 52.2339 28.1422C52.0598 28.2779 51.8574 28.372 51.6419 28.4175C51.4265 28.4631 51.2036 28.4588 50.99 28.4051C50.4981 28.2882 49.9944 28.2286 49.489 28.2276C47.1324 28.2276 45.7064 29.7387 45.7064 32.2471V44.0489H39.7285Z" fill="#A5A6F6"/>
<path d="M69.948 32.7949V26.112C69.948 25.3137 70.2617 24.5479 70.8207 23.9816C71.3796 23.4154 72.1384 23.0948 72.9313 23.0898C73.7275 23.0898 74.4911 23.4082 75.0541 23.975C75.6171 24.5417 75.9334 25.3105 75.9334 26.112V33.5165C75.9334 39.6516 72.3197 44.6005 65.3436 44.6005C62.7769 44.6005 60.1951 43.8713 58.2437 42.1373C56.4877 40.4995 55.3399 38.307 54.9903 35.9229C54.7276 34.3664 54.4724 32.5229 55.722 31.3102C55.886 31.1465 56.0747 31.0101 56.2811 30.906C56.5373 30.7894 56.8092 30.7118 57.0879 30.6756C57.8324 30.5074 58.6114 30.598 59.2982 30.9324C59.8348 31.2755 60.2427 31.7885 60.4578 32.3907C60.7805 33.2105 60.7955 34.0831 60.9981 34.9331C61.1833 35.7549 61.5402 36.5276 62.0451 37.1998C62.437 37.7015 62.9383 38.1056 63.5104 38.3808C64.0824 38.6559 64.7097 38.7947 65.3436 38.7865C68.3907 38.8053 69.948 36.0551 69.948 32.7949Z" fill="#A5A6F6"/>
<path d="M79.6372 53.6973V33.5165C79.6372 27.2113 84.4292 22.5156 90.8949 22.5156C97.3606 22.5156 102.153 27.506 102.153 33.5165C102.153 40.0747 97.6946 44.642 91.2252 44.642C89.1889 44.6257 87.2131 43.9428 85.5963 42.6965V53.6973H79.6372ZM96.1973 33.558C96.1811 32.5074 95.8567 31.4851 95.2651 30.6196C94.6735 29.754 93.841 29.0837 92.8722 28.693C91.9033 28.3022 90.8414 28.2085 89.8198 28.4234C88.7982 28.6384 87.8625 29.1525 87.1302 29.9012C86.3979 30.6499 85.9018 31.5997 85.7041 32.6314C85.5064 33.6631 85.6159 34.7305 86.019 35.6997C86.4221 36.6689 87.1007 37.4965 87.9695 38.0787C88.8384 38.6608 89.8588 38.9714 90.9024 38.9716C91.6072 38.9805 92.3066 38.8459 92.9584 38.576C93.6103 38.306 94.2012 37.9062 94.6957 37.4006C95.1903 36.895 95.5782 36.294 95.8362 35.6337C96.0943 34.9733 96.2171 34.2673 96.1973 33.558Z" fill="#A5A6F6"/>
<path d="M130.406 22.5156C126.627 22.5156 123.846 23.8642 122.053 26.0176C120.386 28.0047 119.565 30.6756 119.565 33.5996V43.248C121.303 42.4358 122.782 41.1525 123.836 39.5418C124.891 37.9311 125.479 36.0567 125.535 34.1285C125.539 34.0668 125.539 34.005 125.535 33.9433C125.648 30.8909 127.171 28.3522 130.413 28.3522C133.821 28.3522 135.374 31.1025 135.374 34.3173V44.0489H141.341V33.5996C141.333 27.4645 137.678 22.5156 130.406 22.5156Z" fill="#A5A6F6"/>
<path d="M57.4144 28.56C59.0931 28.56 60.454 27.19 60.454 25.5C60.454 23.81 59.0931 22.44 57.4144 22.44C55.7357 22.44 54.3748 23.81 54.3748 25.5C54.3748 27.19 55.7357 28.56 57.4144 28.56Z" fill="#A5A6F6"/>
<path d="M108.074 19.5878C109.753 19.5878 111.114 18.2178 111.114 16.5278C111.114 14.8378 109.753 13.4678 108.074 13.4678C106.395 13.4678 105.035 14.8378 105.035 16.5278C105.035 18.2178 106.395 19.5878 108.074 19.5878Z" fill="#A5A6F6"/>
<path d="M119.756 33.7922C119.756 35.0046 119.278 36.1673 118.426 37.0245C117.575 37.8817 116.42 38.3633 115.215 38.3633C114.011 38.3633 112.856 37.8817 112.005 37.0245C111.153 36.1673 110.675 35.0046 110.675 33.7922H105.083C105.083 36.4999 106.152 39.0968 108.054 41.0114C109.956 42.926 112.535 44.0017 115.225 44.0017C117.914 44.0017 120.494 42.926 122.396 41.0114C124.298 39.0968 125.366 36.4999 125.366 33.7922H119.756Z" fill="#A5A6F6" stroke="#A5A6F6" stroke-width="0.5" stroke-miterlimit="10"/>
</g>
<defs>
<filter id="filter0_d_355_360" x="-4" y="0" width="190" height="76" filterUnits="userSpaceOnUse" color-interpolation-filters="sRGB">
<feFlood flood-opacity="0" result="BackgroundImageFix"/>
<feColorMatrix in="SourceAlpha" type="matrix" values="0 0 0 0 0 0 0 0 0 0 0 0 0 0 0 0 0 0 127 0" result="hardAlpha"/>
<feOffset dy="4"/>
<feGaussianBlur stdDeviation="2"/>
<feComposite in2="hardAlpha" operator="out"/>
<feColorMatrix type="matrix" values="0 0 0 0 0 0 0 0 0 0 0 0 0 0 0 0 0 0 0.25 0"/>
<feBlend mode="normal" in2="BackgroundImageFix" result="effect1_dropShadow_355_360"/>
<feBlend mode="normal" in="SourceGraphic" in2="effect1_dropShadow_355_360" result="shape"/>
</filter>
</defs>
</svg>
