<svg xmlns="http://www.w3.org/2000/svg" viewBox="0 0 485 320"><defs><style>.cls-1{fill:none;}.cls-2,.cls-3{fill:#6affaf;}.cls-3{stroke:#6affaf;}.cls-3,.cls-4{stroke-miterlimit:10;}.cls-4{fill:#a5a6f6;stroke:#a5a6f6;stroke-width:7px;}</style></defs><g id="Capa_2" data-name="Capa 2"><path class="cls-1" d="M295.44,251v2.09H279.53V228A27.51,27.51,0,0,0,295.44,251Z"/><path class="cls-2" d="M295.44,205.61V251a27.51,27.51,0,0,1-15.91-23V205.61a8,8,0,0,1,8-8h0A8,8,0,0,1,295.44,205.61Z"/><path class="cls-2" d="M36.1,264.08l13.21-7.17c2.47,4.82,7.06,8.63,14.56,8.63,9.41,0,15.79-6.61,15.79-17.48v-1c-3,3.8-8.4,6.72-16.24,6.72-15.56,0-28-12.1-28-28.56,0-16,13-29.12,30-29.12,17.36,0,30.13,12.43,30.13,29.12v22.4c0,19.71-13.44,32.48-31.47,32.48C51.1,280.1,41.14,274.38,36.1,264.08Zm43.34-39.2c0-7.95-6.27-13.78-14.22-13.78S51.1,216.93,51.1,224.88a13.81,13.81,0,0,0,14.12,13.89C73.17,238.77,79.44,232.83,79.44,224.88Z"/><path class="cls-2" d="M386.1,264.08l13.21-7.17c2.47,4.82,7.06,8.63,14.56,8.63,9.41,0,15.79-6.61,15.79-17.48v-1c-3,3.8-8.4,6.72-16.24,6.72-15.56,0-28-12.1-28-28.56,0-16,13-29.12,30-29.12,17.36,0,30.13,12.43,30.13,29.12v22.4c0,19.71-13.44,32.48-31.47,32.48C401.1,280.1,391.14,274.38,386.1,264.08Zm43.34-39.2c0-7.95-6.27-13.78-14.22-13.78s-14.12,5.83-14.12,13.78a13.81,13.81,0,0,0,14.12,13.89C423.17,238.77,429.44,232.83,429.44,224.88Z"/><path class="cls-2" d="M105.87,253.1V221.3c0-14.23,8.07-25.09,24.53-25.09a30.21,30.21,0,0,1,7.52.95,3.8,3.8,0,0,1,2.78,3.7V208a3.88,3.88,0,0,1-4.82,3.73,17.55,17.55,0,0,0-4-.47c-6.28,0-10.08,4-10.08,10.64V253.1Z"/><path class="cls-2" d="M186.4,223.31V205.62a8,8,0,0,1,7.95-8h0a8,8,0,0,1,8,8v19.6c0,16.24-9.63,29.34-28.22,29.34-6.84,0-13.72-1.93-18.92-6.52a28,28,0,0,1-8.67-16.45c-.7-4.12-1.38-9,1.95-12.21a5.81,5.81,0,0,1,1.49-1.07,7.57,7.57,0,0,1,2.15-.61,9,9,0,0,1,5.89.68,7.63,7.63,0,0,1,3.09,3.86c.86,2.17.9,4.48,1.44,6.73a15.71,15.71,0,0,0,2.79,6.05,11,11,0,0,0,8.79,4.2C182.25,239.22,186.4,231.94,186.4,223.31Z"/><path class="cls-2" d="M212.22,278.64V225.22c0-16.69,12.77-29.12,30-29.12s30,13.21,30,29.12c0,17.36-11.88,29.45-29.12,29.45a25,25,0,0,1-15-5.15v29.12Zm44.13-53.31a14.11,14.11,0,1,0-14.11,14.33A13.94,13.94,0,0,0,256.35,225.33Z"/><path class="cls-2" d="M347.51,196.1c-10.07,0-17.48,3.57-22.26,9.27-4.44,5.26-6.63,12.33-6.63,20.07V251a27.5,27.5,0,0,0,15.91-24.14,4,4,0,0,0,0-.49c.3-8.08,4.36-14.8,13-14.8,9.08,0,13.22,7.28,13.22,15.79V253.1h15.9V225.44C376.63,209.2,366.89,196.1,347.51,196.1Z"/><path class="cls-1" d="M334.53,226.84c0,.16,0,.33,0,.5V253.1h-15.9V251A27.5,27.5,0,0,0,334.53,226.84Z"/><circle class="cls-2" cx="153" cy="204" r="8.1"/><circle class="cls-2" cx="288" cy="180.25" r="8.1"/><path class="cls-3" d="M319.13,226a12.1,12.1,0,0,1-24.2,0L280,226a27,27,0,0,0,54.05,0Z"/></g><g id="Capa_5" data-name="Capa 5"><circle class="cls-4" cx="240.5" cy="97.5" r="62"/><path class="cls-2" d="M254.39,107.69V87.12a9.24,9.24,0,0,1,9.24-9.24h0a9.24,9.24,0,0,1,9.24,9.24V109.9c0,18.87-11.19,34.1-32.8,34.1s-32.67-15.23-32.67-34.1V87.12a9.24,9.24,0,0,1,9.24-9.24h0a9.25,9.25,0,0,1,9.25,9.24v20.7c0,9.89,4.68,18.35,14.18,18.35S254.39,117.71,254.39,107.69Z"/><path class="cls-2" d="M224.62,63.79A7.9,7.9,0,0,1,215,71.4a7.82,7.82,0,1,1,9.65-7.61Z"/><path class="cls-2" d="M271.1,63.79a7.89,7.89,0,0,1-9.64,7.61,7.82,7.82,0,1,1,9.64-7.61Z"/><path class="cls-2" d="M251,80.49a10.67,10.67,0,0,1-13,10.29,10.58,10.58,0,1,1,13-10.29Z"/><circle class="cls-2" cx="240.05" cy="114.11" r="15.11"/></g></svg>