<svg width="50" height="46" viewBox="0 0 50 46" fill="none" xmlns="http://www.w3.org/2000/svg">
<path d="M31.885 18C34.3012 18 36.26 19.9587 36.26 22.375V34.2475C36.26 40.462 31.222 45.5 25.0075 45.5C18.7928 45.5 13.7548 40.462 13.7548 34.2475V22.375C13.7548 19.9587 15.7136 18 18.1298 18H31.885ZM12.8282 17.9977C11.9546 19.0545 11.3909 20.377 11.2764 21.826L11.2548 22.375V34.2475C11.2548 36.364 11.733 38.369 12.5872 40.16C11.7644 40.3825 10.8975 40.5 10.0031 40.5C4.47855 40.5 0 36.0215 0 30.497V22.375C0 20.0795 1.76778 18.197 4.01618 18.0145L4.375 18L12.8282 17.9977ZM37.1868 17.9977L45.625 18C48.0412 18 50 19.9587 50 22.375V30.5C50 36.0228 45.5228 40.5 40 40.5C39.109 40.5 38.245 40.3835 37.4228 40.1647C38.1743 38.595 38.6345 36.863 38.7378 35.036L38.76 34.2475V22.375C38.76 20.7118 38.1695 19.1868 37.1868 17.9977ZM25 0.5C29.1423 0.5 32.5 3.85787 32.5 8C32.5 12.1421 29.1423 15.5 25 15.5C20.8577 15.5 17.5 12.1421 17.5 8C17.5 3.85787 20.8577 0.5 25 0.5ZM41.25 3C44.7018 3 47.5 5.79822 47.5 9.25C47.5 12.7018 44.7018 15.5 41.25 15.5C37.7982 15.5 35 12.7018 35 9.25C35 5.79822 37.7982 3 41.25 3ZM8.75 3C12.2018 3 15 5.79822 15 9.25C15 12.7018 12.2018 15.5 8.75 15.5C5.29822 15.5 2.5 12.7018 2.5 9.25C2.5 5.79822 5.29822 3 8.75 3Z" fill="url(#paint0_linear_143_125)"/>
<defs>
<linearGradient id="paint0_linear_143_125" x1="11.5" y1="-6.5" x2="33.5" y2="42" gradientUnits="userSpaceOnUse">
<stop offset="0.354167" stop-color="#6AFFAF"/>
<stop offset="1" stop-color="#2CE782"/>
</linearGradient>
</defs>
</svg>
