<svg width="51" height="50" viewBox="0 0 51 50" fill="none" xmlns="http://www.w3.org/2000/svg">
<path d="M21.2385 31.2525L21.2365 49.9975H13.749L13.7509 31.2525H21.2385ZM38.1377 27.5025H29.3842C28.3487 27.5025 27.5092 28.342 27.5092 29.3775V38.1325C27.5092 39.168 28.3487 40.0075 29.3842 40.0075H38.1377C39.1732 40.0075 40.0127 39.168 40.0127 38.1325V29.3775C40.0127 28.342 39.1732 27.5025 38.1377 27.5025ZM36.261 31.2525V36.2575H31.2585V31.2525H36.261ZM15.4159 12.505H3.75344L3.75369 15.4169C3.75369 18.3691 5.94752 20.809 8.79384 21.195L9.18587 21.2348L9.58514 21.2482C12.6715 21.2482 15.1979 18.8505 15.4031 15.8161L15.4166 15.4169L15.4159 12.505ZM30.8285 12.505H19.1659L19.1666 15.4169C19.1666 18.3691 21.3605 20.809 24.2067 21.195L24.5987 21.2348L24.998 21.2482C28.0845 21.2482 30.6107 18.8505 30.816 15.8161L30.8295 15.4169L30.8285 12.505ZM46.246 12.505H34.5835L34.5852 15.4169C34.5852 18.3691 36.7792 20.809 39.6255 21.195L40.0175 21.2348L40.4167 21.2482C43.5032 21.2482 46.0295 18.8505 46.2347 15.8161L46.2482 15.4169L46.246 12.505ZM17.6525 3.75H10.8159L6.17344 8.755H16.115L17.6525 3.75ZM28.4225 3.75H21.5775L20.0375 8.755H29.9625L28.4225 3.75ZM39.1835 3.75H32.3475L33.885 8.755H43.826L39.1835 3.75ZM0.504141 9.35483L8.62637 0.599775C8.92204 0.281075 9.31722 0.0770248 9.74262 0.0178748L10.0009 0H40.001C40.4357 0 40.854 0.150925 41.1867 0.42255L41.3755 0.599775L49.5562 9.4206L49.6327 9.51785C49.8872 9.85703 50.002 10.2416 50.002 10.6194L49.9982 15.4169C49.9982 17.9023 49.0517 20.1667 47.4997 21.8695L47.4977 48.125C47.4977 49.0742 46.7925 49.8587 45.8772 49.983L45.6227 50L24.989 49.9975L24.9907 29.3775C24.9907 28.342 24.1512 27.5025 23.1157 27.5025H11.8759C10.8404 27.5025 10.0009 28.342 10.0009 29.3775L9.99904 49.9975L4.37904 50C3.42982 50 2.64532 49.2945 2.52117 48.3795L2.50404 48.125L2.50209 21.8695C1.05332 20.28 0.132316 18.2011 0.0161659 15.9099L0.00369126 15.4169L0.00321621 10.7274C-0.0169588 10.3841 0.0571659 10.031 0.243041 9.70782L0.367491 9.5175L0.504141 9.35483Z" fill="url(#paint0_linear_149_186)"/>
<defs>
<linearGradient id="paint0_linear_149_186" x1="14" y1="-1.5" x2="38.5" y2="42.5" gradientUnits="userSpaceOnUse">
<stop stop-color="#6AFFAF"/>
<stop offset="0.885417" stop-color="#2CE782"/>
</linearGradient>
</defs>
</svg>
